# xmcd
#
# Track frame offsets: 
#        150
#        15586
#        29275
#        43762
#        58243
#        70595
#        91680
#        105043
#        122722
#        134141
#
# Disc length: 2340 seconds
#
# Revision: 0
# Processed by: cddbd v1.5.2PL0 Copyright (c) Steve Scherf et al.
# Submitted via: ExactAudioCopy v0.95b4
#
DISCID=7d09220a
DTITLE=Inyectores - Bombardero
DYEAR=2001
DGENRE=Punk Rock
TTITLE0=Bombardero
TTITLE1=(El Valle de Rafael) El Mono Rojo
TTITLE2=Cada Vez
TTITLE3=Zombie
TTITLE4=Tristeza
TTITLE5=Orbital
TTITLE6=Mundo Nuevo
TTITLE7=Un Hombre Solo
TTITLE8=Poder Volar
TTITLE9=Soñador
EXTD=
EXTT0=
EXTT1=
EXTT2=
EXTT3=
EXTT4=
EXTT5=
EXTT6=
EXTT7=
EXTT8=
EXTT9=
PLAYORDER=
